<svg xmlns="http://www.w3.org/2000/svg" xmlns:xlink="http://www.w3.org/1999/xlink" width="500" zoomAndPan="magnify" viewBox="0 0 375 374.999991" height="500" preserveAspectRatio="xMidYMid meet" version="1.0"><defs><clipPath id="d6b224daa2"><path d="M 25.6875 24.574219 L 217 24.574219 L 217 190 L 25.6875 190 Z M 25.6875 24.574219 " clip-rule="nonzero"/></clipPath><clipPath id="4ff796fb6c"><path d="M 179 113 L 369.9375 113 L 369.9375 279 L 179 279 Z M 179 113 " clip-rule="nonzero"/></clipPath><clipPath id="08dee208ae"><path d="M 25.6875 200 L 217 200 L 217 365.074219 L 25.6875 365.074219 Z M 25.6875 200 " clip-rule="nonzero"/></clipPath><clipPath id="b143f9d393"><path d="M 5.269531 9.957031 L 199 9.957031 L 199 178 L 5.269531 178 Z M 5.269531 9.957031 " clip-rule="nonzero"/></clipPath><clipPath id="2d2a652a69"><path d="M 156 97 L 349.519531 97 L 349.519531 265 L 156 265 Z M 156 97 " clip-rule="nonzero"/></clipPath><clipPath id="159368d9e4"><path d="M 5.269531 184 L 199 184 L 199 351.207031 L 5.269531 351.207031 Z M 5.269531 184 " clip-rule="nonzero"/></clipPath></defs><g clip-path="url(#d6b224daa2)"><path fill="#1d4ed8" d="M 168.542969 24.574219 L 73.308594 24.574219 L 25.691406 107.050781 L 73.308594 189.523438 L 168.542969 189.523438 L 216.160156 107.050781 Z M 168.542969 24.574219 " fill-opacity="1" fill-rule="nonzero"/></g><g clip-path="url(#4ff796fb6c)"><path fill="#1d4ed8" d="M 322.109375 113.421875 L 226.875 113.421875 L 179.257812 195.898438 L 226.875 278.371094 L 322.109375 278.371094 L 369.726562 195.898438 Z M 322.109375 113.421875 " fill-opacity="1" fill-rule="nonzero"/></g><g clip-path="url(#08dee208ae)"><path fill="#1d4ed8" d="M 168.542969 200.078125 L 73.308594 200.078125 L 25.691406 282.550781 L 73.308594 365.027344 L 168.542969 365.027344 L 216.160156 282.550781 Z M 168.542969 200.078125 " fill-opacity="1" fill-rule="nonzero"/></g><g clip-path="url(#b143f9d393)"><path fill="#211c1d" d="M 149.9375 177.015625 L 53.492188 177.015625 L 5.269531 93.492188 L 53.492188 9.964844 L 149.9375 9.964844 L 198.160156 93.492188 Z M 57.238281 170.527344 L 146.191406 170.527344 L 190.667969 93.492188 L 146.191406 16.453125 L 57.238281 16.453125 L 12.761719 93.492188 Z M 57.238281 170.527344 " fill-opacity="1" fill-rule="nonzero"/></g><g clip-path="url(#2d2a652a69)"><path fill="#211c1d" d="M 301.089844 264.625 L 204.644531 264.625 L 156.421875 181.101562 L 204.644531 97.574219 L 301.089844 97.574219 L 349.3125 181.101562 Z M 208.390625 258.136719 L 297.34375 258.136719 L 341.820312 181.101562 L 297.34375 104.0625 L 208.390625 104.0625 L 163.914062 181.101562 Z M 208.390625 258.136719 " fill-opacity="1" fill-rule="nonzero"/></g><g clip-path="url(#159368d9e4)"><path fill="#211c1d" d="M 149.9375 351.261719 L 53.492188 351.261719 L 5.269531 267.738281 L 53.492188 184.210938 L 149.9375 184.210938 L 198.160156 267.738281 Z M 57.238281 344.773438 L 146.191406 344.773438 L 190.667969 267.738281 L 146.191406 190.699219 L 57.238281 190.699219 L 12.761719 267.738281 Z M 57.238281 344.773438 " fill-opacity="1" fill-rule="nonzero"/></g></svg>